<?xml version="1.0" encoding="utf-8"?>
<svg id="master-artboard" viewBox="0 0 2992.39453125 2446.450927734375" version="1.1" xmlns="http://www.w3.org/2000/svg" x="0px" y="0px" style="enable-background:new 0 0 1400 980;" width="2992.39453125px" height="2446.450927734375px"><defs><linearGradient id="gradient-0" gradientUnits="userSpaceOnUse" x1="652" y1="46" x2="652" y2="146">
                <stop offset="0" style="stop-color: #333333"/>
                <stop offset="1" style="stop-color: #000000"/>
              </linearGradient><style id="ee-google-fonts">@import url(https://fonts.googleapis.com/css?family=Fredoka+One:400);</style></defs><rect id="ee-background" x="0" y="0" width="2992.39453125" height="2446.450927734375" style="fill: white; fill-opacity: 0; pointer-events: none;"/>








































<g transform="matrix(23.547070293396246, 0, 0, 23.547070293396246, -14027.279420414823, -997.4283550996333)"><g id="g-1" transform="matrix(1, 0, 0, 1, 0, 0)">
	<g id="g-2">
		<path class="st0" d="M652,46c27.6,0,50,22.4,50,50s-22.4,50-50,50s-50-22.4-50-50S624.4,46,652,46z" style="fill: rgb(23, 164, 99);"/>
	</g>
</g></g><path d="M 251.93382263183594 441.75 C 253.0404815673828 441.75 253.69049072265625 442.0533142089844 253.88381958007812 442.6600036621094 C 253.97714233398438 442.9599914550781 254.02381896972656 443.3599853515625 254.02381896972656 443.8599853515625 C 254.02381896972656 444.35333251953125 253.97048950195312 444.75 253.8638153076172 445.04998779296875 C 253.76382446289062 445.34332275390625 253.60047912597656 445.5533142089844 253.37380981445312 445.67999267578125 C 253.0404815673828 445.8733215332031 252.55381774902344 445.9700012207031 251.913818359375 445.9700012207031 L 250.37380981445312 445.8699951171875 L 250.37380981445312 452.30999755859375 C 250.37380981445312 452.9166564941406 250.29714965820312 453.3666687011719 250.14381408691406 453.6600036621094 C 249.9971466064453 453.9599914550781 249.76715087890625 454.1566467285156 249.4538116455078 454.25 C 249.14048767089844 454.34332275390625 248.73715209960938 454.3899841308594 248.2438201904297 454.3899841308594 C 247.7438201904297 454.3899841308594 247.34715270996094 454.3399963378906 247.05381774902344 454.239990234375 C 246.75381469726562 454.1333312988281 246.5404815673828 453.96331787109375 246.413818359375 453.72998046875 C 246.2871551513672 453.5033264160156 246.21047973632812 453.2933349609375 246.18382263183594 453.1000061035156 C 246.163818359375 452.9066467285156 246.15382385253906 452.62664794921875 246.15382385253906 452.260009765625 L 246.15382385253906 445.8999938964844 L 245.2838134765625 445.8999938964844 C 244.8704833984375 445.8666687011719 244.5771484375 445.7699890136719 244.40382385253906 445.6099853515625 C 244.09715270996094 445.3033142089844 243.94381713867188 444.7200012207031 243.94381713867188 443.8599853515625 C 243.94381713867188 442.5466613769531 244.41714477539062 441.8899841308594 245.3638153076172 441.8899841308594 L 246.15382385253906 441.8899841308594 L 246.15382385253906 440.6199951171875 C 246.15382385253906 439.38665771484375 246.59381103515625 438.2699890136719 247.47381591796875 437.2699890136719 C 248.35382080078125 436.2699890136719 249.62380981445312 435.7699890136719 251.2838134765625 435.7699890136719 C 251.6571502685547 435.7699890136719 251.93382263183594 435.7833251953125 252.1138153076172 435.80999755859375 C 252.30047607421875 435.8299865722656 252.51382446289062 435.9033203125 252.75381469726562 436.0299987792969 C 253.18714904785156 436.2433166503906 253.40380859375 436.8599853515625 253.40380859375 437.8800048828125 C 253.40380859375 438.64666748046875 253.26715087890625 439.1999816894531 252.9938201904297 439.5400085449219 C 252.76715087890625 439.7933349609375 252.413818359375 439.9366760253906 251.93382263183594 439.9700012207031 C 251.7938232421875 439.9700012207031 251.5704803466797 439.9700012207031 251.26380920410156 439.9700012207031 C 250.6704864501953 439.9700012207031 250.37380981445312 440.16998291015625 250.37380981445312 440.57000732421875 L 250.37380981445312 441.8899841308594 L 251.93382263183594 441.75 Z" transform="matrix(74.28329467773438, 0, 0, 74.28329467773438, -17172.234375, -31825.26171875)" style="fill: rgb(255, 255, 255); white-space: pre; color: rgb(255, 255, 255);"/></svg>