<?xml version="1.0" encoding="utf-8"?>
<svg id="master-artboard" viewBox="0 0 1400 980" version="1.1" xmlns="http://www.w3.org/2000/svg" x="0px" y="0px" style="enable-background:new 0 0 1400 980;" width="1400px" height="980px"><defs><linearGradient id="gradient-0" gradientUnits="userSpaceOnUse" x1="652" y1="46" x2="652" y2="146">
                <stop offset="0" style="stop-color: #333333"/>
                <stop offset="1" style="stop-color: #000000"/>
              </linearGradient><style id="ee-google-fonts">@import url(https://fonts.googleapis.com/css?family=Space+Mono:400,400italic,700,700italic);</style><radialGradient id="gradient-1" gradientUnits="objectBoundingBox" cx="0.5" cy="0.5" r="0.5" gradientTransform="matrix(-2.4493640661239624, -0.29340314865112305, 0.6725225746631622, -0.9605323076248169, 1.3884207457304, 1.12696772813797)">
                <stop offset="0" style="stop-color: #ffffff"/>
                <stop offset="1" style="stop-color: #cccccc"/>
              </radialGradient></defs><g transform="matrix(0.46666663885116577, 0, 0, 0.46666663885116577, 174.99977111816406, -0.0000021914661516575507)"><rect id="ee-background" x="0" y="0" width="2250" height="2100" style="fill: white; fill-opacity: 0; pointer-events: none;"/><g transform="matrix(19.947057723999023, 0, 0, 19.947057723999023, -11831.278479331993, -848.2781982421874)"><g id="g-1" transform="matrix(1, 0, 0, 1, 0, 0)">
	<g id="g-2">
		<path class="st0" d="M652,46c27.6,0,50,22.4,50,50s-22.4,50-50,50s-50-22.4-50-50S624.4,46,652,46z" style="fill: rgb(23, 164, 99);"/>
	</g>
</g></g><path d="M 821.5863037109375 912.982177734375 L 824.9662475585938 912.982177734375 L 824.9662475585938 910.5322265625 C 824.9662475585938 909.8455200195312 825.1995849609375 909.2655639648438 825.666259765625 908.7921752929688 C 826.1262817382812 908.31884765625 826.6995849609375 908.0822143554688 827.3862915039062 908.0822143554688 L 832.2362670898438 908.0822143554688 L 832.2362670898438 910.9622192382812 L 828.6362915039062 910.9622192382812 C 828.2029418945312 910.9622192382812 827.9862670898438 911.2022094726562 827.9862670898438 911.6821899414062 L 827.9862670898438 912.982177734375 L 832.666259765625 912.982177734375 L 832.666259765625 915.8621826171875 L 827.9862670898438 915.8621826171875 L 827.9862670898438 924.8822021484375 L 824.9662475585938 924.8822021484375 L 824.9662475585938 915.8621826171875 L 821.5863037109375 915.8621826171875 L 821.5863037109375 912.982177734375 Z" transform="matrix(59.3469352722168, 0, 0, 59.3469352722168, -47922.14453125, -53343.37890625)" style="fill: rgb(255, 255, 255); white-space: pre; color: rgb(255, 255, 255); stroke: rgb(110, 117, 255); stroke-width: 0; fill-opacity: 1; paint-order: fill; stroke-opacity: 0; -webkit-text-stroke: 0px rgb(110, 117, 255);"/><path d="M 2419.01953125 1906.927734375 L 2409.4697265625 1906.927734375 L 2409.4697265625 1889.7977294921875 L 2419.01953125 1889.7977294921875 L 2419.01953125 1891.5677490234375 L 2411.459716796875 1891.5677490234375 L 2411.459716796875 1897.0877685546875 L 2418.5595703125 1897.0877685546875 L 2418.5595703125 1898.8377685546875 L 2411.459716796875 1898.8377685546875 L 2411.459716796875 1905.147705078125 L 2419.01953125 1905.147705078125 L 2419.01953125 1906.927734375 ZM 2431.28857421875 1906.927734375 L 2431.28857421875 1898.61767578125 C 2431.28857421875 1897.571044921875 2431.0517578125 1896.791015625 2430.578369140625 1896.2777099609375 C 2430.098388671875 1895.7576904296875 2429.351806640625 1895.4976806640625 2428.33837890625 1895.4976806640625 C 2426.99169921875 1895.4976806640625 2426.008544921875 1895.861083984375 2425.388427734375 1896.5877685546875 C 2424.76171875 1897.314453125 2424.448486328125 1898.514404296875 2424.448486328125 1900.187744140625 L 2424.448486328125 1906.927734375 L 2422.49853515625 1906.927734375 L 2422.49853515625 1894.0877685546875 L 2424.078369140625 1894.0877685546875 L 2424.3984375 1895.8377685546875 L 2424.488525390625 1895.8377685546875 C 2424.888427734375 1895.204345703125 2425.448486328125 1894.71435546875 2426.16845703125 1894.36767578125 C 2426.888427734375 1894.0211181640625 2427.6884765625 1893.8477783203125 2428.568359375 1893.8477783203125 C 2430.115234375 1893.8477783203125 2431.28173828125 1894.2210693359375 2432.068359375 1894.9677734375 C 2432.848388671875 1895.71435546875 2433.238525390625 1896.90771484375 2433.238525390625 1898.5477294921875 L 2433.238525390625 1906.927734375 L 2431.28857421875 1906.927734375 ZM 2441.358154296875 1905.5577392578125 C 2441.704833984375 1905.5577392578125 2442.0380859375 1905.5311279296875 2442.358154296875 1905.477783203125 C 2442.67822265625 1905.4310302734375 2442.931640625 1905.377685546875 2443.1181640625 1905.3177490234375 L 2443.1181640625 1906.8077392578125 C 2442.90478515625 1906.9144287109375 2442.594970703125 1906.9976806640625 2442.188232421875 1907.0577392578125 C 2441.77490234375 1907.1243896484375 2441.40478515625 1907.15771484375 2441.078125 1907.15771484375 C 2438.591552734375 1907.15771484375 2437.34814453125 1905.85107421875 2437.34814453125 1903.23779296875 L 2437.34814453125 1895.5977783203125 L 2435.50830078125 1895.5977783203125 L 2435.50830078125 1894.65771484375 L 2437.34814453125 1893.8477783203125 L 2438.168212890625 1891.1077880859375 L 2439.298095703125 1891.1077880859375 L 2439.298095703125 1894.0877685546875 L 2443.028076171875 1894.0877685546875 L 2443.028076171875 1895.5977783203125 L 2439.298095703125 1895.5977783203125 L 2439.298095703125 1903.15771484375 C 2439.298095703125 1903.9310302734375 2439.4814453125 1904.5244140625 2439.84814453125 1904.937744140625 C 2440.21484375 1905.35107421875 2440.71826171875 1905.5577392578125 2441.358154296875 1905.5577392578125 ZM 2451.098876953125 1907.15771484375 C 2449.198974609375 1907.15771484375 2447.698974609375 1906.5810546875 2446.598876953125 1905.427734375 C 2445.505615234375 1904.2744140625 2444.958984375 1902.667724609375 2444.958984375 1900.6077880859375 C 2444.958984375 1898.541015625 2445.468994140625 1896.897705078125 2446.48876953125 1895.677734375 C 2447.5087890625 1894.457763671875 2448.87548828125 1893.8477783203125 2450.5888671875 1893.8477783203125 C 2452.2021484375 1893.8477783203125 2453.4755859375 1894.377685546875 2454.408935546875 1895.437744140625 C 2455.348876953125 1896.4976806640625 2455.81884765625 1897.8944091796875 2455.81884765625 1899.627685546875 L 2455.81884765625 1900.8577880859375 L 2446.968994140625 1900.8577880859375 C 2447.0087890625 1902.3643798828125 2447.392333984375 1903.5076904296875 2448.118896484375 1904.2877197265625 C 2448.8388671875 1905.0743408203125 2449.85546875 1905.4677734375 2451.1689453125 1905.4677734375 C 2452.548828125 1905.4677734375 2453.91552734375 1905.177734375 2455.268798828125 1904.5977783203125 L 2455.268798828125 1906.3277587890625 C 2454.582275390625 1906.627685546875 2453.93212890625 1906.841064453125 2453.31884765625 1906.9677734375 C 2452.70556640625 1907.0943603515625 2451.965576171875 1907.15771484375 2451.098876953125 1907.15771484375 M 2450.56884765625 1895.477783203125 C 2449.53564453125 1895.477783203125 2448.712158203125 1895.814453125 2448.098876953125 1896.48779296875 C 2447.485595703125 1897.1610107421875 2447.12548828125 1898.091064453125 2447.018798828125 1899.2777099609375 L 2453.73876953125 1899.2777099609375 C 2453.73876953125 1898.051025390625 2453.462158203125 1897.111083984375 2452.908935546875 1896.457763671875 C 2452.3623046875 1895.804443359375 2451.582275390625 1895.477783203125 2450.56884765625 1895.477783203125 ZM 2464.974853515625 1893.8477783203125 C 2465.54833984375 1893.8477783203125 2466.0615234375 1893.8944091796875 2466.514892578125 1893.98779296875 L 2466.244873046875 1895.7977294921875 C 2465.711669921875 1895.677734375 2465.24169921875 1895.61767578125 2464.8349609375 1895.61767578125 C 2463.794921875 1895.61767578125 2462.908203125 1896.041015625 2462.175048828125 1896.8876953125 C 2461.434814453125 1897.727783203125 2461.06494140625 1898.7777099609375 2461.06494140625 1900.0377197265625 L 2461.06494140625 1906.927734375 L 2459.114990234375 1906.927734375 L 2459.114990234375 1894.0877685546875 L 2460.724853515625 1894.0877685546875 L 2460.94482421875 1896.4677734375 L 2461.034912109375 1896.4677734375 C 2461.514892578125 1895.627685546875 2462.091552734375 1894.9810791015625 2462.764892578125 1894.5277099609375 C 2463.431640625 1894.0743408203125 2464.168212890625 1893.8477783203125 2464.974853515625 1893.8477783203125 ZM 2473.08349609375 1894.0877685546875 L 2475.173583984375 1894.0877685546875 L 2477.9833984375 1901.40771484375 C 2478.603515625 1903.0810546875 2478.98681640625 1904.2877197265625 2479.133544921875 1905.0277099609375 L 2479.223388671875 1905.0277099609375 C 2479.330078125 1904.627685546875 2479.54345703125 1903.94775390625 2479.863525390625 1902.98779296875 C 2480.190185546875 1902.0211181640625 2481.250244140625 1899.054443359375 2483.04345703125 1894.0877685546875 L 2485.133544921875 1894.0877685546875 L 2479.613525390625 1908.707763671875 C 2479.06689453125 1910.1544189453125 2478.4267578125 1911.1810302734375 2477.693359375 1911.7877197265625 C 2476.966796875 1912.3944091796875 2476.073486328125 1912.69775390625 2475.013427734375 1912.69775390625 C 2474.41357421875 1912.69775390625 2473.826904296875 1912.631103515625 2473.25341796875 1912.4976806640625 L 2473.25341796875 1910.937744140625 C 2473.68017578125 1911.0311279296875 2474.16015625 1911.0777587890625 2474.693359375 1911.0777587890625 C 2476.02685546875 1911.0777587890625 2476.980224609375 1910.3277587890625 2477.553466796875 1908.8277587890625 L 2478.263427734375 1906.9976806640625 L 2473.08349609375 1894.0877685546875 ZM 2498.2900390625 1900.4976806640625 C 2498.2900390625 1902.591064453125 2497.763427734375 1904.224365234375 2496.710205078125 1905.397705078125 C 2495.650146484375 1906.571044921875 2494.193359375 1907.15771484375 2492.340087890625 1907.15771484375 C 2491.186767578125 1907.15771484375 2490.166748046875 1906.89111328125 2489.280029296875 1906.3577880859375 C 2488.38671875 1905.8177490234375 2487.69677734375 1905.04443359375 2487.210205078125 1904.0377197265625 C 2486.730224609375 1903.0244140625 2486.490234375 1901.8443603515625 2486.490234375 1900.4976806640625 C 2486.490234375 1898.4044189453125 2487.013427734375 1896.7711181640625 2488.06005859375 1895.5977783203125 C 2489.106689453125 1894.4310302734375 2490.56005859375 1893.8477783203125 2492.420166015625 1893.8477783203125 C 2494.21337890625 1893.8477783203125 2495.64013671875 1894.4444580078125 2496.7001953125 1895.6376953125 C 2497.76025390625 1896.8377685546875 2498.2900390625 1898.457763671875 2498.2900390625 1900.4976806640625 M 2488.500244140625 1900.4976806640625 C 2488.500244140625 1902.1376953125 2488.830078125 1903.3876953125 2489.490234375 1904.2476806640625 C 2490.1435546875 1905.1077880859375 2491.106689453125 1905.5377197265625 2492.380126953125 1905.5377197265625 C 2493.653564453125 1905.5377197265625 2494.6201171875 1905.1077880859375 2495.280029296875 1904.2476806640625 C 2495.940185546875 1903.3944091796875 2496.27001953125 1902.1444091796875 2496.27001953125 1900.4976806640625 C 2496.27001953125 1898.8643798828125 2495.940185546875 1897.6243896484375 2495.280029296875 1896.7777099609375 C 2494.6201171875 1895.9244384765625 2493.646728515625 1895.4976806640625 2492.360107421875 1895.4976806640625 C 2491.0869140625 1895.4976806640625 2490.126708984375 1895.917724609375 2489.480224609375 1896.7576904296875 C 2488.826904296875 1897.591064453125 2488.500244140625 1898.8377685546875 2488.500244140625 1900.4976806640625 ZM 2503.505859375 1894.0877685546875 L 2503.505859375 1902.417724609375 C 2503.505859375 1903.46435546875 2503.745849609375 1904.244384765625 2504.22607421875 1904.7576904296875 C 2504.69921875 1905.2777099609375 2505.442626953125 1905.5377197265625 2506.4560546875 1905.5377197265625 C 2507.802734375 1905.5377197265625 2508.785888671875 1905.167724609375 2509.406005859375 1904.427734375 C 2510.02587890625 1903.6944580078125 2510.3359375 1902.4976806640625 2510.3359375 1900.8377685546875 L 2510.3359375 1894.0877685546875 L 2512.285888671875 1894.0877685546875 L 2512.285888671875 1906.927734375 L 2510.676025390625 1906.927734375 L 2510.39599609375 1905.207763671875 L 2510.2958984375 1905.207763671875 C 2509.89599609375 1905.841064453125 2509.342529296875 1906.3243408203125 2508.635986328125 1906.65771484375 C 2507.92919921875 1906.9910888671875 2507.12255859375 1907.15771484375 2506.216064453125 1907.15771484375 C 2504.6494140625 1907.15771484375 2503.479248046875 1906.7877197265625 2502.7060546875 1906.0477294921875 C 2501.926025390625 1905.3077392578125 2501.535888671875 1904.12109375 2501.535888671875 1902.48779296875 L 2501.535888671875 1894.0877685546875 L 2503.505859375 1894.0877685546875 ZM 2522.24560546875 1893.8477783203125 C 2522.819091796875 1893.8477783203125 2523.332275390625 1893.8944091796875 2523.78564453125 1893.98779296875 L 2523.515625 1895.7977294921875 C 2522.982421875 1895.677734375 2522.512451171875 1895.61767578125 2522.105712890625 1895.61767578125 C 2521.065673828125 1895.61767578125 2520.178955078125 1896.041015625 2519.44580078125 1896.8876953125 C 2518.70556640625 1897.727783203125 2518.335693359375 1898.7777099609375 2518.335693359375 1900.0377197265625 L 2518.335693359375 1906.927734375 L 2516.3857421875 1906.927734375 L 2516.3857421875 1894.0877685546875 L 2517.99560546875 1894.0877685546875 L 2518.215576171875 1896.4677734375 L 2518.3056640625 1896.4677734375 C 2518.78564453125 1895.627685546875 2519.3623046875 1894.9810791015625 2520.03564453125 1894.5277099609375 C 2520.702392578125 1894.0743408203125 2521.43896484375 1893.8477783203125 2522.24560546875 1893.8477783203125 ZM 2536.544189453125 1905.5577392578125 C 2536.890869140625 1905.5577392578125 2537.22412109375 1905.5311279296875 2537.544189453125 1905.477783203125 C 2537.8642578125 1905.4310302734375 2538.11767578125 1905.377685546875 2538.30419921875 1905.3177490234375 L 2538.30419921875 1906.8077392578125 C 2538.0908203125 1906.9144287109375 2537.781005859375 1906.9976806640625 2537.374267578125 1907.0577392578125 C 2536.9609375 1907.1243896484375 2536.5908203125 1907.15771484375 2536.26416015625 1907.15771484375 C 2533.777587890625 1907.15771484375 2532.5341796875 1905.85107421875 2532.5341796875 1903.23779296875 L 2532.5341796875 1895.5977783203125 L 2530.6943359375 1895.5977783203125 L 2530.6943359375 1894.65771484375 L 2532.5341796875 1893.8477783203125 L 2533.354248046875 1891.1077880859375 L 2534.484130859375 1891.1077880859375 L 2534.484130859375 1894.0877685546875 L 2538.214111328125 1894.0877685546875 L 2538.214111328125 1895.5977783203125 L 2534.484130859375 1895.5977783203125 L 2534.484130859375 1903.15771484375 C 2534.484130859375 1903.9310302734375 2534.66748046875 1904.5244140625 2535.0341796875 1904.937744140625 C 2535.40087890625 1905.35107421875 2535.904296875 1905.5577392578125 2536.544189453125 1905.5577392578125 ZM 2546.284912109375 1907.15771484375 C 2544.385009765625 1907.15771484375 2542.885009765625 1906.5810546875 2541.784912109375 1905.427734375 C 2540.691650390625 1904.2744140625 2540.14501953125 1902.667724609375 2540.14501953125 1900.6077880859375 C 2540.14501953125 1898.541015625 2540.655029296875 1896.897705078125 2541.6748046875 1895.677734375 C 2542.69482421875 1894.457763671875 2544.0615234375 1893.8477783203125 2545.77490234375 1893.8477783203125 C 2547.38818359375 1893.8477783203125 2548.66162109375 1894.377685546875 2549.594970703125 1895.437744140625 C 2550.534912109375 1896.4976806640625 2551.0048828125 1897.8944091796875 2551.0048828125 1899.627685546875 L 2551.0048828125 1900.8577880859375 L 2542.155029296875 1900.8577880859375 C 2542.19482421875 1902.3643798828125 2542.578369140625 1903.5076904296875 2543.304931640625 1904.2877197265625 C 2544.02490234375 1905.0743408203125 2545.04150390625 1905.4677734375 2546.35498046875 1905.4677734375 C 2547.73486328125 1905.4677734375 2549.1015625 1905.177734375 2550.454833984375 1904.5977783203125 L 2550.454833984375 1906.3277587890625 C 2549.768310546875 1906.627685546875 2549.1181640625 1906.841064453125 2548.5048828125 1906.9677734375 C 2547.8916015625 1907.0943603515625 2547.151611328125 1907.15771484375 2546.284912109375 1907.15771484375 M 2545.7548828125 1895.477783203125 C 2544.7216796875 1895.477783203125 2543.898193359375 1895.814453125 2543.284912109375 1896.48779296875 C 2542.671630859375 1897.1610107421875 2542.3115234375 1898.091064453125 2542.204833984375 1899.2777099609375 L 2548.9248046875 1899.2777099609375 C 2548.9248046875 1898.051025390625 2548.648193359375 1897.111083984375 2548.094970703125 1896.457763671875 C 2547.54833984375 1895.804443359375 2546.768310546875 1895.477783203125 2545.7548828125 1895.477783203125 ZM 2557.400634765625 1900.3577880859375 L 2552.9306640625 1894.0877685546875 L 2555.150634765625 1894.0877685546875 L 2558.53076171875 1899.0076904296875 L 2561.91064453125 1894.0877685546875 L 2564.100830078125 1894.0877685546875 L 2559.630615234375 1900.3577880859375 L 2564.330810546875 1906.927734375 L 2562.130615234375 1906.927734375 L 2558.53076171875 1901.727783203125 L 2554.900634765625 1906.927734375 L 2552.70068359375 1906.927734375 L 2557.400634765625 1900.3577880859375 ZM 2571.00732421875 1905.5577392578125 C 2571.35400390625 1905.5577392578125 2571.687255859375 1905.5311279296875 2572.00732421875 1905.477783203125 C 2572.327392578125 1905.4310302734375 2572.580810546875 1905.377685546875 2572.767333984375 1905.3177490234375 L 2572.767333984375 1906.8077392578125 C 2572.553955078125 1906.9144287109375 2572.244140625 1906.9976806640625 2571.83740234375 1907.0577392578125 C 2571.424072265625 1907.1243896484375 2571.053955078125 1907.15771484375 2570.727294921875 1907.15771484375 C 2568.24072265625 1907.15771484375 2566.997314453125 1905.85107421875 2566.997314453125 1903.23779296875 L 2566.997314453125 1895.5977783203125 L 2565.157470703125 1895.5977783203125 L 2565.157470703125 1894.65771484375 L 2566.997314453125 1893.8477783203125 L 2567.8173828125 1891.1077880859375 L 2568.947265625 1891.1077880859375 L 2568.947265625 1894.0877685546875 L 2572.67724609375 1894.0877685546875 L 2572.67724609375 1895.5977783203125 L 2568.947265625 1895.5977783203125 L 2568.947265625 1903.15771484375 C 2568.947265625 1903.9310302734375 2569.130615234375 1904.5244140625 2569.497314453125 1904.937744140625 C 2569.864013671875 1905.35107421875 2570.367431640625 1905.5577392578125 2571.00732421875 1905.5577392578125 ZM 2590.333740234375 1906.927734375 L 2590.333740234375 1898.61767578125 C 2590.333740234375 1897.571044921875 2590.096923828125 1896.791015625 2589.62353515625 1896.2777099609375 C 2589.1435546875 1895.7576904296875 2588.39697265625 1895.4976806640625 2587.383544921875 1895.4976806640625 C 2586.0302734375 1895.4976806640625 2585.043701171875 1895.86767578125 2584.423583984375 1896.6077880859375 C 2583.8037109375 1897.341064453125 2583.49365234375 1898.54443359375 2583.49365234375 1900.2177734375 L 2583.49365234375 1906.927734375 L 2581.543701171875 1906.927734375 L 2581.543701171875 1888.69775390625 L 2583.49365234375 1888.69775390625 L 2583.49365234375 1894.2177734375 C 2583.49365234375 1894.877685546875 2583.460205078125 1895.427734375 2583.3935546875 1895.86767578125 L 2583.513671875 1895.86767578125 C 2583.900390625 1895.2476806640625 2584.447021484375 1894.7611083984375 2585.153564453125 1894.40771484375 C 2585.8603515625 1894.054443359375 2586.6669921875 1893.877685546875 2587.57373046875 1893.877685546875 C 2589.140380859375 1893.877685546875 2590.31689453125 1894.2476806640625 2591.103759765625 1894.98779296875 C 2591.890380859375 1895.734375 2592.28369140625 1896.9210205078125 2592.28369140625 1898.5477294921875 L 2592.28369140625 1906.927734375 L 2590.333740234375 1906.927734375 ZM 2601.683349609375 1907.15771484375 C 2599.783447265625 1907.15771484375 2598.283447265625 1906.5810546875 2597.183349609375 1905.427734375 C 2596.090087890625 1904.2744140625 2595.54345703125 1902.667724609375 2595.54345703125 1900.6077880859375 C 2595.54345703125 1898.541015625 2596.053466796875 1896.897705078125 2597.0732421875 1895.677734375 C 2598.09326171875 1894.457763671875 2599.4599609375 1893.8477783203125 2601.17333984375 1893.8477783203125 C 2602.78662109375 1893.8477783203125 2604.06005859375 1894.377685546875 2604.993408203125 1895.437744140625 C 2605.933349609375 1896.4976806640625 2606.4033203125 1897.8944091796875 2606.4033203125 1899.627685546875 L 2606.4033203125 1900.8577880859375 L 2597.553466796875 1900.8577880859375 C 2597.59326171875 1902.3643798828125 2597.976806640625 1903.5076904296875 2598.703369140625 1904.2877197265625 C 2599.42333984375 1905.0743408203125 2600.43994140625 1905.4677734375 2601.75341796875 1905.4677734375 C 2603.13330078125 1905.4677734375 2604.5 1905.177734375 2605.853271484375 1904.5977783203125 L 2605.853271484375 1906.3277587890625 C 2605.166748046875 1906.627685546875 2604.5166015625 1906.841064453125 2603.9033203125 1906.9677734375 C 2603.2900390625 1907.0943603515625 2602.550048828125 1907.15771484375 2601.683349609375 1907.15771484375 M 2601.1533203125 1895.477783203125 C 2600.1201171875 1895.477783203125 2599.296630859375 1895.814453125 2598.683349609375 1896.48779296875 C 2598.070068359375 1897.1610107421875 2597.7099609375 1898.091064453125 2597.603271484375 1899.2777099609375 L 2604.3232421875 1899.2777099609375 C 2604.3232421875 1898.051025390625 2604.046630859375 1897.111083984375 2603.493408203125 1896.457763671875 C 2602.94677734375 1895.804443359375 2602.166748046875 1895.477783203125 2601.1533203125 1895.477783203125 ZM 2615.55908203125 1893.8477783203125 C 2616.132568359375 1893.8477783203125 2616.645751953125 1893.8944091796875 2617.09912109375 1893.98779296875 L 2616.8291015625 1895.7977294921875 C 2616.2958984375 1895.677734375 2615.825927734375 1895.61767578125 2615.419189453125 1895.61767578125 C 2614.379150390625 1895.61767578125 2613.492431640625 1896.041015625 2612.75927734375 1896.8876953125 C 2612.01904296875 1897.727783203125 2611.649169921875 1898.7777099609375 2611.649169921875 1900.0377197265625 L 2611.649169921875 1906.927734375 L 2609.69921875 1906.927734375 L 2609.69921875 1894.0877685546875 L 2611.30908203125 1894.0877685546875 L 2611.529052734375 1896.4677734375 L 2611.619140625 1896.4677734375 C 2612.09912109375 1895.627685546875 2612.67578125 1894.9810791015625 2613.34912109375 1894.5277099609375 C 2614.015869140625 1894.0743408203125 2614.75244140625 1893.8477783203125 2615.55908203125 1893.8477783203125 ZM 2624.912353515625 1907.15771484375 C 2623.012451171875 1907.15771484375 2621.512451171875 1906.5810546875 2620.412353515625 1905.427734375 C 2619.319091796875 1904.2744140625 2618.7724609375 1902.667724609375 2618.7724609375 1900.6077880859375 C 2618.7724609375 1898.541015625 2619.282470703125 1896.897705078125 2620.30224609375 1895.677734375 C 2621.322265625 1894.457763671875 2622.68896484375 1893.8477783203125 2624.40234375 1893.8477783203125 C 2626.015625 1893.8477783203125 2627.2890625 1894.377685546875 2628.222412109375 1895.437744140625 C 2629.162353515625 1896.4976806640625 2629.63232421875 1897.8944091796875 2629.63232421875 1899.627685546875 L 2629.63232421875 1900.8577880859375 L 2620.782470703125 1900.8577880859375 C 2620.822265625 1902.3643798828125 2621.205810546875 1903.5076904296875 2621.932373046875 1904.2877197265625 C 2622.65234375 1905.0743408203125 2623.6689453125 1905.4677734375 2624.982421875 1905.4677734375 C 2626.3623046875 1905.4677734375 2627.72900390625 1905.177734375 2629.082275390625 1904.5977783203125 L 2629.082275390625 1906.3277587890625 C 2628.395751953125 1906.627685546875 2627.74560546875 1906.841064453125 2627.13232421875 1906.9677734375 C 2626.51904296875 1907.0943603515625 2625.779052734375 1907.15771484375 2624.912353515625 1907.15771484375 M 2624.38232421875 1895.477783203125 C 2623.34912109375 1895.477783203125 2622.525634765625 1895.814453125 2621.912353515625 1896.48779296875 C 2621.299072265625 1897.1610107421875 2620.93896484375 1898.091064453125 2620.832275390625 1899.2777099609375 L 2627.55224609375 1899.2777099609375 C 2627.55224609375 1898.051025390625 2627.275634765625 1897.111083984375 2626.722412109375 1896.457763671875 C 2626.17578125 1895.804443359375 2625.395751953125 1895.477783203125 2624.38232421875 1895.477783203125 Z" transform="matrix(1, 0, 0, 1, 0, 0)" style="fill: rgb(238, 238, 238); white-space: pre; color: rgb(51, 51, 51);"/></g></svg>