<?xml version="1.0" encoding="utf-8"?>
<svg id="master-artboard" viewBox="0 0 1422.514892578125 1144.14013671875" version="1.1" xmlns="http://www.w3.org/2000/svg" x="0px" y="0px" style="enable-background:new 0 0 336 235.2;" width="1422.514892578125px" height="1144.14013671875px"><defs><linearGradient id="gradient-0" gradientUnits="userSpaceOnUse" x1="652" y1="46" x2="652" y2="146">
                <stop offset="0" style="stop-color: #333333"/>
                <stop offset="1" style="stop-color: #000000"/>
              </linearGradient></defs><g transform="matrix(0.4005802571773529, 0, 0, 0.4005802571773529, 100.6528549194336, 65.81261920928955)"><rect id="ee-background" x="0" y="0" width="1422.514892578125" height="1144.14013671875" style="fill: white; fill-opacity: 0; pointer-events: none;"/><g transform="matrix(28.34707011680352, 0, 0, 28.34707011680352, -16916.87963835527, -1458.2283991818877)"><g id="g-1" transform="matrix(1, 0, 0, 1, 0, 0)">
	<g id="g-2">
		<path class="st0" d="M652,46c27.6,0,50,22.4,50,50s-22.4,50-50,50s-50-22.4-50-50S624.4,46,652,46z" style="fill: rgb(23, 164, 99);"/>
	</g>
</g></g><path d="M 251.93382263183594 441.70330810546875 C 253.0404815673828 441.70330810546875 253.69049072265625 442.0066223144531 253.88381958007812 442.6133117675781 C 253.97714233398438 442.9132995605469 254.02381896972656 443.31329345703125 254.02381896972656 443.81329345703125 C 254.02381896972656 444.306640625 253.97048950195312 444.70330810546875 253.8638153076172 445.0032958984375 C 253.76382446289062 445.296630859375 253.60047912597656 445.5066223144531 253.37380981445312 445.63330078125 C 253.0404815673828 445.8266296386719 252.55381774902344 445.9233093261719 251.913818359375 445.9233093261719 L 250.37380981445312 445.82330322265625 L 250.37380981445312 452.2633056640625 C 250.37380981445312 452.8699645996094 250.29714965820312 453.3199768066406 250.14381408691406 453.6133117675781 C 249.9971466064453 453.9132995605469 249.76715087890625 454.1099548339844 249.4538116455078 454.20330810546875 C 249.14048767089844 454.296630859375 248.73715209960938 454.3432922363281 248.2438201904297 454.3432922363281 C 247.7438201904297 454.3432922363281 247.34715270996094 454.2933044433594 247.05381774902344 454.19329833984375 C 246.75381469726562 454.0866394042969 246.5404815673828 453.9166259765625 246.413818359375 453.68328857421875 C 246.2871551513672 453.4566345214844 246.21047973632812 453.24664306640625 246.18382263183594 453.0533142089844 C 246.163818359375 452.8599548339844 246.15382385253906 452.5799560546875 246.15382385253906 452.21331787109375 L 246.15382385253906 445.8533020019531 L 245.2838134765625 445.8533020019531 C 244.8704833984375 445.8199768066406 244.5771484375 445.7232971191406 244.40382385253906 445.56329345703125 C 244.09715270996094 445.2566223144531 243.94381713867188 444.6733093261719 243.94381713867188 443.81329345703125 C 243.94381713867188 442.4999694824219 244.41714477539062 441.8432922363281 245.3638153076172 441.8432922363281 L 246.15382385253906 441.8432922363281 L 246.15382385253906 440.57330322265625 C 246.15382385253906 439.3399658203125 246.59381103515625 438.2232971191406 247.47381591796875 437.2232971191406 C 248.35382080078125 436.2232971191406 249.62380981445312 435.7232971191406 251.2838134765625 435.7232971191406 C 251.6571502685547 435.7232971191406 251.93382263183594 435.73663330078125 252.1138153076172 435.7633056640625 C 252.30047607421875 435.7832946777344 252.51382446289062 435.85662841796875 252.75381469726562 435.9833068847656 C 253.18714904785156 436.1966247558594 253.40380859375 436.81329345703125 253.40380859375 437.83331298828125 C 253.40380859375 438.5999755859375 253.26715087890625 439.1532897949219 252.9938201904297 439.4933166503906 C 252.76715087890625 439.74664306640625 252.413818359375 439.8899841308594 251.93382263183594 439.9233093261719 C 251.7938232421875 439.9233093261719 251.5704803466797 439.9233093261719 251.26380920410156 439.9233093261719 C 250.6704864501953 439.9233093261719 250.37380981445312 440.123291015625 250.37380981445312 440.5233154296875 L 250.37380981445312 441.8432922363281 L 251.93382263183594 441.70330810546875 ZM 267.2935485839844 446.4833068847656 C 267.2935485839844 446.4833068847656 267.2935485839844 446.72998046875 267.2935485839844 447.2232971191406 C 267.2935485839844 447.7166442871094 267.05023193359375 448.1999816894531 266.5635681152344 448.6733093261719 C 266.0768737792969 449.1466369628906 265.5368957519531 449.38330078125 264.94354248046875 449.38330078125 L 259.2535400390625 449.38330078125 C 259.2535400390625 449.8299560546875 259.5168762207031 450.20330810546875 260.0435485839844 450.5032958984375 C 260.5768737792969 450.8099670410156 261.10687255859375 450.96331787109375 261.633544921875 450.96331787109375 C 262.5602111816406 450.96331787109375 263.2868957519531 450.86663818359375 263.8135681152344 450.6733093261719 L 264.08355712890625 450.58331298828125 C 264.46356201171875 450.4032897949219 264.7835693359375 450.31329345703125 265.0435485839844 450.31329345703125 C 265.55023193359375 450.31329345703125 265.990234375 450.6733093261719 266.3635559082031 451.393310546875 C 266.5702209472656 451.8266296386719 266.6735534667969 452.1966247558594 266.6735534667969 452.5032958984375 C 266.6735534667969 453.9233093261719 264.97021484375 454.63330078125 261.5635681152344 454.63330078125 C 260.37689208984375 454.63330078125 259.32354736328125 454.4299621582031 258.403564453125 454.0233154296875 C 257.4835510253906 453.61663818359375 256.7668762207031 453.0766296386719 256.2535400390625 452.4032897949219 C 255.24688720703125 451.1099548339844 254.74356079101562 449.6632995605469 254.74356079101562 448.06329345703125 C 254.74356079101562 446.0433044433594 255.39688110351562 444.4299621582031 256.70355224609375 443.2232971191406 C 258.0035400390625 442.0166320800781 259.6302185058594 441.4132995605469 261.58355712890625 441.4132995605469 C 263.8102111816406 441.4132995605469 265.44354248046875 442.1966247558594 266.4835510253906 443.7633056640625 C 267.0235595703125 444.5966491699219 267.2935485839844 445.5032958984375 267.2935485839844 446.4833068847656 M 262.2335510253906 447.19329833984375 C 262.8402099609375 447.19329833984375 263.1435546875 446.9366455078125 263.1435546875 446.4233093261719 C 263.1435546875 446.056640625 263.0035400390625 445.7633056640625 262.7235412597656 445.5433044433594 C 262.44354248046875 445.316650390625 262.0435485839844 445.20330810546875 261.5235595703125 445.20330810546875 C 261.0035400390625 445.20330810546875 260.48687744140625 445.4166259765625 259.9735412597656 445.8432922363281 C 259.4602355957031 446.2633056640625 259.20355224609375 446.71331787109375 259.20355224609375 447.19329833984375 L 262.2335510253906 447.19329833984375 ZM 281.0451965332031 446.4833068847656 C 281.0451965332031 446.4833068847656 281.0451965332031 446.72998046875 281.0451965332031 447.2232971191406 C 281.0451965332031 447.7166442871094 280.8018798828125 448.1999816894531 280.3152160644531 448.6733093261719 C 279.8285217285156 449.1466369628906 279.2885437011719 449.38330078125 278.6951904296875 449.38330078125 L 273.00518798828125 449.38330078125 C 273.00518798828125 449.8299560546875 273.2685241699219 450.20330810546875 273.7951965332031 450.5032958984375 C 274.3285217285156 450.8099670410156 274.8585205078125 450.96331787109375 275.38519287109375 450.96331787109375 C 276.3118591308594 450.96331787109375 277.0385437011719 450.86663818359375 277.5652160644531 450.6733093261719 L 277.835205078125 450.58331298828125 C 278.2152099609375 450.4032897949219 278.53521728515625 450.31329345703125 278.7951965332031 450.31329345703125 C 279.3018798828125 450.31329345703125 279.74188232421875 450.6733093261719 280.1152038574219 451.393310546875 C 280.3218688964844 451.8266296386719 280.4252014160156 452.1966247558594 280.4252014160156 452.5032958984375 C 280.4252014160156 453.9233093261719 278.72186279296875 454.63330078125 275.3152160644531 454.63330078125 C 274.1285400390625 454.63330078125 273.0751953125 454.4299621582031 272.15521240234375 454.0233154296875 C 271.2351989746094 453.61663818359375 270.5185241699219 453.0766296386719 270.00518798828125 452.4032897949219 C 268.99853515625 451.1099548339844 268.4952087402344 449.6632995605469 268.4952087402344 448.06329345703125 C 268.4952087402344 446.0433044433594 269.1485290527344 444.4299621582031 270.4552001953125 443.2232971191406 C 271.75518798828125 442.0166320800781 273.3818664550781 441.4132995605469 275.335205078125 441.4132995605469 C 277.5618591308594 441.4132995605469 279.1951904296875 442.1966247558594 280.2351989746094 443.7633056640625 C 280.77520751953125 444.5966491699219 281.0451965332031 445.5032958984375 281.0451965332031 446.4833068847656 M 275.9851989746094 447.19329833984375 C 276.59185791015625 447.19329833984375 276.89520263671875 446.9366455078125 276.89520263671875 446.4233093261719 C 276.89520263671875 446.056640625 276.75518798828125 445.7633056640625 276.4751892089844 445.5433044433594 C 276.1951904296875 445.316650390625 275.7951965332031 445.20330810546875 275.27520751953125 445.20330810546875 C 274.75518798828125 445.20330810546875 274.238525390625 445.4166259765625 273.7251892089844 445.8432922363281 C 273.2118835449219 446.2633056640625 272.9552001953125 446.71331787109375 272.9552001953125 447.19329833984375 L 275.9851989746094 447.19329833984375 ZM 291.0868835449219 436.4032897949219 C 291.0868835449219 436.4032897949219 291.11688232421875 436.3466491699219 291.1768798828125 436.2333068847656 C 291.23687744140625 436.1199645996094 291.42022705078125 436.0133056640625 291.72686767578125 435.9132995605469 C 292.0335388183594 435.8199768066406 292.4368896484375 435.7733154296875 292.9368896484375 435.7733154296875 C 293.44354248046875 435.7733154296875 293.8468933105469 435.8199768066406 294.1468811035156 435.9132995605469 C 294.45355224609375 436.0133056640625 294.6668701171875 436.18328857421875 294.7868957519531 436.4233093261719 C 294.9068908691406 436.6632995605469 294.980224609375 436.873291015625 295.0068664550781 437.0533142089844 C 295.0268859863281 437.2399597167969 295.0368957519531 437.5166320800781 295.0368957519531 437.88330078125 L 295.0368957519531 452.21331787109375 C 295.0368957519531 452.5799560546875 295.0268859863281 452.85662841796875 295.0068664550781 453.0433044433594 C 294.980224609375 453.2232971191406 294.9035339355469 453.4266357421875 294.7768859863281 453.6532897949219 C 294.5368957519531 454.0866394042969 293.8602294921875 454.3033142089844 292.74688720703125 454.3033142089844 C 291.633544921875 454.3033142089844 291.0135498046875 453.90997314453125 290.8868713378906 453.123291015625 C 290.21356201171875 453.8899841308594 289.2768859863281 454.2733154296875 288.0768737792969 454.2733154296875 C 286.6368713378906 454.2733154296875 285.3268737792969 453.6466369628906 284.1468811035156 452.393310546875 C 282.960205078125 451.13330078125 282.36688232421875 449.66998291015625 282.36688232421875 448.0032958984375 C 282.36688232421875 446.3299560546875 282.96356201171875 444.8599853515625 284.1568908691406 443.5932922363281 C 285.3502197265625 442.33331298828125 286.6568908691406 441.70330810546875 288.0768737792969 441.70330810546875 C 289.2635498046875 441.70330810546875 290.18353271484375 442.1033020019531 290.8368835449219 442.9032897949219 L 290.8368835449219 437.8633117675781 C 290.8368835449219 437.4899597167969 290.8502197265625 437.21331787109375 290.87689208984375 437.0332946777344 C 290.8968811035156 436.8466491699219 290.9668884277344 436.6366271972656 291.0868835449219 436.4032897949219 M 287.1868896484375 449.45330810546875 C 287.1868896484375 449.45330810546875 287.2935485839844 449.5599670410156 287.5068664550781 449.7733154296875 C 287.71356201171875 449.9933166503906 288.1135559082031 450.1033020019531 288.7068786621094 450.1033020019531 C 289.2935485839844 450.1033020019531 289.7835388183594 449.8866271972656 290.1768798828125 449.45330810546875 C 290.5702209472656 449.01995849609375 290.7668762207031 448.5433044433594 290.7668762207031 448.0233154296875 C 290.7668762207031 447.5032958984375 290.5802001953125 447.01995849609375 290.2068786621094 446.57330322265625 C 289.8268737792969 446.12664794921875 289.31689453125 445.9032897949219 288.6768798828125 445.9032897949219 C 288.0368957519531 445.9032897949219 287.5268859863281 446.123291015625 287.1468811035156 446.56329345703125 C 286.7602233886719 447.0032958984375 286.56689453125 447.48663330078125 286.56689453125 448.0133056640625 C 286.56689453125 448.53997802734375 286.7735595703125 449.01995849609375 287.1868896484375 449.45330810546875 ZM 296.9585266113281 443.7832946777344 C 296.9585266113281 443.4166259765625 296.97186279296875 443.143310546875 296.99853515625 442.96331787109375 C 297.0185241699219 442.7766418457031 297.085205078125 442.56329345703125 297.19854736328125 442.32330322265625 C 297.4252014160156 441.90997314453125 298.04852294921875 441.70330810546875 299.06854248046875 441.70330810546875 C 299.835205078125 441.70330810546875 300.3785400390625 441.8366394042969 300.69854736328125 442.1033020019531 C 300.97186279296875 442.3299560546875 301.1185302734375 442.6766357421875 301.1385498046875 443.143310546875 C 301.15185546875 443.3033142089844 301.1585388183594 443.5332946777344 301.1585388183594 443.83331298828125 L 301.1585388183594 452.2333068847656 C 301.1585388183594 452.5999755859375 301.14520263671875 452.87664794921875 301.1185302734375 453.06329345703125 C 301.0985412597656 453.2499694824219 301.02520751953125 453.46331787109375 300.8985290527344 453.70330810546875 C 300.6852111816406 454.11663818359375 300.06854248046875 454.32330322265625 299.04852294921875 454.32330322265625 C 298.0418701171875 454.32330322265625 297.4252014160156 454.10662841796875 297.19854736328125 453.6733093261719 C 297.085205078125 453.43328857421875 297.0185241699219 453.22662353515625 296.99853515625 453.0533142089844 C 296.97186279296875 452.873291015625 296.9585266113281 452.5932922363281 296.9585266113281 452.21331787109375 L 296.9585266113281 443.7832946777344 M 300.9085388183594 439.33331298828125 C 300.9085388183594 439.33331298828125 300.8785400390625 439.393310546875 300.81854248046875 439.5133056640625 C 300.758544921875 439.62664794921875 300.5751953125 439.72998046875 300.2685241699219 439.82330322265625 C 299.9685363769531 439.9233093261719 299.5652160644531 439.9732971191406 299.05853271484375 439.9732971191406 C 298.5518798828125 439.9732971191406 298.1485290527344 439.9233093261719 297.8485412597656 439.82330322265625 C 297.5418701171875 439.72998046875 297.3285217285156 439.56329345703125 297.2085266113281 439.32330322265625 C 297.0885314941406 439.08331298828125 297.0185241699219 438.8699645996094 296.99853515625 438.68328857421875 C 296.97186279296875 438.5032958984375 296.9585266113281 438.22998046875 296.9585266113281 437.8633117675781 C 296.9585266113281 437.4899597167969 296.97186279296875 437.21331787109375 296.99853515625 437.0332946777344 C 297.0185241699219 436.8466491699219 297.085205078125 436.643310546875 297.19854736328125 436.4233093261719 C 297.4252014160156 435.9899597167969 298.04852294921875 435.7733154296875 299.06854248046875 435.7733154296875 C 300.0751953125 435.7733154296875 300.6852111816406 435.9899597167969 300.8985290527344 436.4233093261719 C 301.02520751953125 436.6632995605469 301.0985412597656 436.873291015625 301.1185302734375 437.0533142089844 C 301.14520263671875 437.2399597167969 301.1585388183594 437.5166320800781 301.1585388183594 437.88330078125 C 301.1585388183594 438.2499694824219 301.14520263671875 438.5266418457031 301.1185302734375 438.71331787109375 C 301.0985412597656 438.893310546875 301.0285339355469 439.0999755859375 300.9085388183594 439.33331298828125 ZM 310.4683837890625 441.70330810546875 C 311.5750427246094 441.70330810546875 312.22503662109375 442.0066223144531 312.4183654785156 442.6133117675781 C 312.51171875 442.9132995605469 312.5583801269531 443.31329345703125 312.5583801269531 443.81329345703125 C 312.5583801269531 444.306640625 312.5050354003906 444.70330810546875 312.39837646484375 445.0032958984375 C 312.2983703613281 445.296630859375 312.1350402832031 445.5066223144531 311.90838623046875 445.63330078125 C 311.5750427246094 445.8266296386719 311.08837890625 445.9233093261719 310.4483642578125 445.9233093261719 L 308.90838623046875 445.82330322265625 L 308.90838623046875 452.2633056640625 C 308.90838623046875 452.8699645996094 308.83172607421875 453.3199768066406 308.6783752441406 453.6133117675781 C 308.5317077636719 453.9132995605469 308.30169677734375 454.1099548339844 307.9883728027344 454.20330810546875 C 307.675048828125 454.296630859375 307.2716979980469 454.3432922363281 306.77838134765625 454.3432922363281 C 306.27838134765625 454.3432922363281 305.8817138671875 454.2933044433594 305.58837890625 454.19329833984375 C 305.28839111328125 454.0866394042969 305.0750427246094 453.9166259765625 304.9483642578125 453.68328857421875 C 304.82171630859375 453.4566345214844 304.74505615234375 453.24664306640625 304.7183837890625 453.0533142089844 C 304.6983642578125 452.8599548339844 304.6883850097656 452.5799560546875 304.6883850097656 452.21331787109375 L 304.6883850097656 445.8533020019531 L 303.8183898925781 445.8533020019531 C 303.405029296875 445.8199768066406 303.1117248535156 445.7232971191406 302.9383850097656 445.56329345703125 C 302.6317138671875 445.2566223144531 302.4783630371094 444.6733093261719 302.4783630371094 443.81329345703125 C 302.4783630371094 442.4999694824219 302.95172119140625 441.8432922363281 303.89837646484375 441.8432922363281 L 304.6883850097656 441.8432922363281 L 304.6883850097656 440.57330322265625 C 304.6883850097656 439.3399658203125 305.1283874511719 438.2232971191406 306.0083923339844 437.2232971191406 C 306.88836669921875 436.2232971191406 308.15838623046875 435.7232971191406 309.8183898925781 435.7232971191406 C 310.19171142578125 435.7232971191406 310.4683837890625 435.73663330078125 310.64837646484375 435.7633056640625 C 310.8350524902344 435.7832946777344 311.0483703613281 435.85662841796875 311.28839111328125 435.9833068847656 C 311.7217102050781 436.1966247558594 311.9383850097656 436.81329345703125 311.9383850097656 437.83331298828125 C 311.9383850097656 438.5999755859375 311.80169677734375 439.1532897949219 311.52838134765625 439.4933166503906 C 311.30169677734375 439.74664306640625 310.9483642578125 439.8899841308594 310.4683837890625 439.9233093261719 C 310.328369140625 439.9233093261719 310.10504150390625 439.9233093261719 309.7983703613281 439.9233093261719 C 309.2050476074219 439.9233093261719 308.90838623046875 440.123291015625 308.90838623046875 440.5233154296875 L 308.90838623046875 441.8432922363281 L 310.4683837890625 441.70330810546875 ZM 325.6380920410156 441.82330322265625 C 326.5847473144531 442.23663330078125 327.05810546875 442.7399597167969 327.05810546875 443.33331298828125 C 327.05810546875 443.6199645996094 326.9914245605469 443.8899841308594 326.85809326171875 444.143310546875 C 326.7314147949219 444.4032897949219 326.6680908203125 444.53997802734375 326.6680908203125 444.5533142089844 L 320.3780822753906 458.623291015625 C 320.2514343261719 458.9233093261719 320.1447448730469 459.1532897949219 320.05810546875 459.31329345703125 C 319.971435546875 459.4732971191406 319.8314208984375 459.62664794921875 319.6380920410156 459.7733154296875 C 319.44476318359375 459.9132995605469 319.20477294921875 459.9833068847656 318.9180908203125 459.9833068847656 C 318.63140869140625 459.9833068847656 318.2080993652344 459.8633117675781 317.6481018066406 459.623291015625 C 316.701416015625 459.2099609375 316.22808837890625 458.7166442871094 316.22808837890625 458.143310546875 C 316.22808837890625 457.7566223144531 316.9980773925781 455.9233093261719 318.5380859375 452.643310546875 L 313.7580871582031 444.6033020019531 C 313.4380798339844 444.0766296386719 313.278076171875 443.68328857421875 313.278076171875 443.4233093261719 C 313.278076171875 442.9166259765625 313.71142578125 442.4066467285156 314.5780944824219 441.893310546875 C 315.11810302734375 441.57330322265625 315.5414123535156 441.4132995605469 315.84808349609375 441.4132995605469 C 316.1481018066406 441.4132995605469 316.3947448730469 441.47662353515625 316.5881042480469 441.6033020019531 C 316.78143310546875 441.72998046875 316.9214172363281 441.8633117675781 317.0080871582031 442.0032958984375 C 317.0947570800781 442.1366271972656 317.5347595214844 442.8799743652344 318.3280944824219 444.2333068847656 C 319.1214294433594 445.5866394042969 319.8780822753906 446.8466491699219 320.59808349609375 448.0133056640625 C 320.6781005859375 447.7532958984375 321.1114196777344 446.7633056640625 321.8981018066406 445.0433044433594 C 322.6781005859375 443.32330322265625 323.09808349609375 442.40997314453125 323.1580810546875 442.3033142089844 C 323.21142578125 442.1899719238281 323.3014221191406 442.0533142089844 323.4281005859375 441.893310546875 C 323.634765625 441.6199645996094 323.9281005859375 441.4833068847656 324.30810546875 441.4833068847656 C 324.6814270019531 441.4833068847656 325.124755859375 441.5966491699219 325.6380920410156 441.82330322265625 Z" transform="matrix(28.812376022338867, 0, 0, 28.812376022338867, -6641.26708984375, -11672.5048828125)" style="fill: rgb(255, 255, 255); white-space: pre; color: rgb(255, 255, 255);"/></g></svg>